<?xml version="1.0" standalone="no"?>
<!DOCTYPE svg PUBLIC "-//W3C//DTD SVG 20010904//EN"
 "http://www.w3.org/TR/2001/REC-SVG-20010904/DTD/svg10.dtd">
<svg version="1.0" xmlns="http://www.w3.org/2000/svg"
 width="640.000000pt" height="640.000000pt" viewBox="0 0 640.000000 640.000000"
 preserveAspectRatio="xMidYMid meet">

<g transform="translate(0.000000,640.000000) scale(0.100000,-0.100000)"
fill="#000000" stroke="none">
<path d="M0 3200 l0 -3200 3200 0 3200 0 0 3200 0 3200 -3200 0 -3200 0 0
-3200z m3500 2995 c187 -142 300 -237 300 -254 0 -4 -30 -32 -67 -62 -217
-175 -516 -444 -633 -569 -262 -282 -408 -491 -602 -865 -62 -119 -166 -389
-212 -550 -15 -49 -30 -103 -35 -120 -31 -102 -83 -392 -96 -537 l-6 -68 335
0 c225 0 337 -3 341 -11 14 -21 18 -364 6 -463 -6 -55 -13 -101 -15 -103 -1
-2 -280 -4 -619 -5 -461 -2 -619 0 -628 9 -16 16 -17 469 -1 638 24 249 45
370 104 615 159 657 446 1214 897 1740 114 133 403 412 533 515 169 134 240
185 258 185 8 0 71 -43 140 -95z m772 -752 c322 -402 564 -868 721 -1388 94
-311 135 -547 163 -928 16 -220 14 -471 -5 -520 l-9 -22 -281 5 -282 5 -4 315
c-4 376 -26 555 -104 851 -125 474 -316 871 -603 1256 -54 72 -98 138 -98 145
0 15 55 65 163 148 171 132 263 199 273 199 7 1 36 -29 66 -66z m-820 -839
c226 -320 399 -709 477 -1069 56 -257 66 -356 66 -652 0 -155 -2 -284 -5 -286
-9 -9 -30 -9 -305 -8 l-270 1 0 283 c0 188 -4 310 -14 367 -37 234 -131 520
-231 705 -18 33 -42 78 -53 100 -12 22 -36 64 -55 93 -29 47 -32 57 -23 83 37
108 297 505 325 496 6 -2 46 -52 88 -113z m-1363 -2916 c44 -254 76 -433 95
-538 45 -242 56 -306 56 -317 0 -9 -22 -13 -79 -13 l-80 0 -6 48 c-4 26 -10
67 -14 92 l-6 45 -87 3 -86 3 -5 -33 c-4 -18 -9 -62 -12 -98 -4 -36 -9 -72
-13 -80 -3 -8 -14 -73 -24 -145 -10 -71 -25 -173 -33 -225 -9 -52 -15 -108
-15 -125 0 -16 -4 -39 -9 -50 -5 -11 -13 -46 -16 -77 l-6 -58 -98 0 c-54 0
-100 2 -103 5 -2 3 4 44 14 92 11 49 27 133 36 188 9 55 20 105 23 110 4 6 13
53 20 105 7 52 16 100 20 105 3 6 12 51 19 100 7 50 16 95 20 100 4 6 13 55
20 110 7 55 16 105 20 110 4 6 13 51 20 100 7 50 15 95 19 100 3 6 14 57 23
115 22 135 53 301 68 368 l12 52 87 0 86 0 34 -192z m756 167 l25 -24 0 -235
c0 -229 -1 -236 -22 -261 -17 -19 -36 -27 -75 -32 -29 -3 -53 -10 -53 -15 0
-5 9 -30 20 -56 33 -81 150 -394 150 -403 0 -5 -37 -9 -83 -9 l-82 0 -18 53
c-20 56 -49 133 -122 319 -32 83 -45 131 -45 167 l0 50 83 3 82 3 2 158 2 157
-109 0 -110 0 0 -455 0 -455 -80 0 -80 0 0 530 0 530 245 0 246 0 24 -25z
m391 -255 c46 -151 84 -282 84 -289 0 -30 18 6 38 74 27 95 63 216 109 365
l38 125 78 3 77 3 0 -531 0 -531 -76 3 -76 3 -1 288 c-1 158 -4 282 -8 274 -8
-13 -79 -278 -106 -394 l-15 -63 -48 0 c-46 0 -48 1 -54 33 -3 17 -30 120 -58
227 l-53 195 -3 -282 -2 -283 -80 0 -80 0 0 530 0 531 76 -3 77 -3 83 -275z
m1069 255 l25 -24 0 -481 0 -481 -25 -25 -25 -25 -226 3 c-224 3 -226 3 -245
27 -18 22 -19 46 -19 503 l0 479 25 24 24 25 221 0 221 0 24 -25z m659 13 c14
-6 28 -19 31 -29 8 -25 15 -427 8 -467 -7 -43 -52 -72 -110 -72 l-42 0 31 -77
c17 -43 41 -107 55 -143 13 -36 31 -78 39 -93 8 -16 14 -34 14 -40 0 -7 6 -24
14 -39 8 -14 19 -43 26 -65 7 -21 19 -47 25 -58 7 -11 16 -33 19 -50 4 -16 15
-48 25 -70 35 -77 49 -110 56 -135 4 -14 11 -29 15 -35 4 -5 13 -27 20 -48 7
-22 18 -51 26 -65 8 -15 14 -32 14 -39 0 -6 6 -24 14 -40 8 -15 19 -39 24 -53
6 -14 17 -41 26 -62 33 -74 29 -78 -83 -78 -95 0 -100 1 -106 23 -3 12 -10 31
-15 42 -11 24 -33 78 -34 85 -1 3 -4 10 -7 15 -4 6 -10 26 -14 45 -4 19 -10
40 -14 45 -3 6 -6 12 -7 15 0 3 -6 18 -12 33 -7 16 -12 35 -12 43 0 8 -5 14
-11 14 -6 0 -9 7 -6 15 4 8 2 17 -2 20 -5 2 -12 21 -16 41 -3 20 -13 46 -20
58 -7 12 -17 38 -20 59 -4 20 -11 37 -15 37 -4 0 -11 17 -15 38 -3 20 -12 46
-19 57 -7 11 -18 42 -25 70 -7 27 -16 54 -20 60 -4 5 -14 30 -21 55 -8 25 -20
56 -27 70 -7 14 -13 32 -13 40 0 8 -9 33 -20 55 -11 22 -19 45 -20 51 0 6 -8
26 -17 45 -10 19 -19 64 -21 102 l-4 67 81 0 81 0 0 160 0 160 -105 0 -105 0
0 -455 0 -455 -80 0 -80 0 0 530 0 530 235 0 c155 0 243 -4 259 -12z"/>
<path d="M1956 1560 c-19 -114 -56 -364 -56 -384 0 -13 13 -16 66 -16 l66 0
-4 38 c-15 124 -51 360 -58 377 -6 17 -9 15 -14 -15z"/>
<path d="M3950 1350 l0 -380 110 0 110 0 0 380 0 380 -110 0 -110 0 0 -380z"/>
</g>
</svg>
